<svg viewBox="0 0 64 64" xmlns="http://www.w3.org/2000/svg">
  <!-- Left handle -->
  <path d="M 14 18 Q 6 18 6 28 Q 6 36 14 36" fill="none" stroke="#d97706" stroke-width="4" stroke-linecap="round"/>
  <!-- Right handle -->
  <path d="M 50 18 Q 58 18 58 28 Q 58 36 50 36" fill="none" stroke="#d97706" stroke-width="4" stroke-linecap="round"/>
  <!-- Cup body -->
  <path d="M 14 12 L 50 12 L 46 38 Q 44 42 40 42 L 24 42 Q 20 42 18 38 Z" fill="#f59e0b"/>
  <path d="M 14 12 L 50 12 L 46 38 Q 44 42 40 42 L 24 42 Q 20 42 18 38 Z" fill="none" stroke="#d97706" stroke-width="2"/>
  <!-- Stem -->
  <rect x="27" y="42" width="10" height="6" rx="1" fill="#d97706"/>
  <!-- Base -->
  <rect x="18" y="48" width="28" height="5" rx="2.5" fill="#d97706"/>
  <rect x="18" y="48" width="28" height="3" rx="2" fill="#f59e0b"/>
  <!-- Shine -->
  <path d="M 22 18 L 24 18 L 22 32 L 20 32 Z" fill="#fde68a" opacity="0.7"/>
  <!-- Star -->
  <circle cx="32" cy="26" r="4" fill="#fde68a"/>
</svg>
